<?xml version="1.0" ?><!DOCTYPE svg  PUBLIC '-//W3C//DTD SVG 1.1//EN'  'http://www.w3.org/Graphics/SVG/1.1/DTD/svg11.dtd'><svg enable-background="new 0 0 841.891 595.279" height="595.279px" id="Layer_1" version="1.1" viewBox="0 0 841.891 595.279" width="841.891px" xml:space="preserve" xmlns="http://www.w3.org/2000/svg" xmlns:xlink="http://www.w3.org/1999/xlink"><path d="M715.769,296.719  c0,162.826-132.003,294.818-294.827,294.818c-162.823,0-294.816-131.992-294.816-294.818c0-162.829,131.994-294.827,294.816-294.827  C583.766,1.893,715.769,133.891,715.769,296.719z" fill="#F39C12" stroke="#FFFFFF" stroke-miterlimit="10" stroke-width="8"/><g id="_x35_0Lb5E.tif"><g><path d="M508.724,378.697c0,15.011,0,30.021,0,45.03c-0.606,0.271-1.22,0.528-1.814,0.821    c-17.404,8.574-35.714,13.808-55.16,14.591c-11.635,0.469-23.235,0.055-34.672-2.508c-14.711-3.296-27.673-9.808-38.181-20.798    c-5.726-5.988-10.239-12.721-12.11-20.938c-1.458-6.405-2.078-12.919-2.083-19.478c-0.023-34.089-0.013-68.18-0.014-102.271    c0-2.064-0.004-2.068-2.05-2.068c-9.163-0.001-18.326,0.001-27.489-0.005c-0.662,0-1.323-0.068-1.985-0.104    c0-13.585,0-27.17,0-40.755c1.984-0.499,3.87-1.278,5.759-2.041c17.037-6.866,30.739-17.643,39.822-33.881    c6.994-12.506,10.494-26.034,11.989-40.17c13.682,0,27.361,0,41.039,0c0.039,0.757,0.106,1.513,0.106,2.269    c0.007,22.509,0.005,45.02,0.005,67.527c0,2.197,0.002,2.198,2.207,2.198c20.987,0,41.977,0,62.966,0    c2.367,0,2.371,0.002,2.371,2.423c0,13.392,0,26.782,0,40.173c0,2.365-0.004,2.367-2.426,2.367c-21.086,0-42.171,0-63.253,0.001    c-1.82,0-1.871,0.041-1.862,1.825c0.135,26.782-0.285,53.564,0.233,80.341c0.111,5.744,0.447,11.464,1.175,17.163    c0.636,4.966,2.481,9.322,6.146,12.827c2.577,2.461,5.586,4.232,8.815,5.676c9.146,4.094,18.685,4.186,28.339,2.667    c11.052-1.738,21.103-6.084,30.494-12.06C507.603,379.192,508.066,378.748,508.724,378.697z" fill="#FFFFFF"/></g></g></svg>